<svg width="120" height="120" viewBox="0 0 120 120" fill="none" xmlns="http://www.w3.org/2000/svg">
<g clip-path="url(#clip0_3_50)">
<path d="M68.9463 113.92C60.1996 113.92 52.2529 111.84 45.1063 107.68C37.9596 103.52 32.2529 97.44 27.9863 89.44C23.8263 81.3333 21.7463 71.52 21.7463 60C21.7463 48.5867 23.8796 38.8267 28.1463 30.72C32.5196 22.5067 38.3329 16.2667 45.5863 12C52.8396 7.62667 60.8396 5.44 69.5863 5.44C76.1996 5.44 82.0663 6.77333 87.1863 9.43999C92.3063 12.1067 96.5196 15.2 99.8263 18.72L89.9063 30.72C87.2396 27.9467 84.2529 25.76 80.9463 24.16C77.7463 22.4533 74.1196 21.6 70.0663 21.6C64.4129 21.6 59.3463 23.1467 54.8663 26.24C50.4929 29.2267 47.0263 33.5467 44.4663 39.2C42.0129 44.8533 40.7863 51.6267 40.7863 59.52C40.7863 71.4667 43.3996 80.8533 48.6263 87.68C53.8529 94.4 60.8396 97.76 69.5863 97.76C74.2796 97.76 78.4396 96.8 82.0663 94.88C85.6929 92.8533 88.9996 90.24 91.9863 87.04L101.906 98.72C97.6396 103.627 92.7329 107.413 87.1863 110.08C81.7463 112.64 75.6663 113.92 68.9463 113.92Z" fill="#6E56CF"/>
</g>
<defs>
<clipPath id="clip0_3_50">
<rect width="120" height="120" fill="white"/>
</clipPath>
</defs>
</svg>
