<svg width="150" height="150" viewBox="0 0 150 150" fill="none" xmlns="http://www.w3.org/2000/svg">
<path d="M149.641 75.9869C149.641 116.863 116.575 150 75.7863 150C34.9973 150 1.9312 116.863 1.9312 75.9869C1.9312 35.1105 34.9973 1.97369 75.7863 1.97369C116.575 1.97369 149.641 35.1105 149.641 75.9869Z" fill="#6E56CF"/>
<path d="M79.9119 129.92C71.1652 129.92 63.2185 127.84 56.0719 123.68C48.9252 119.52 43.2185 113.44 38.9519 105.44C34.7918 97.3333 32.7118 87.52 32.7118 76C32.7118 64.5867 34.8452 54.8267 39.1118 46.72C43.4852 38.5067 49.2985 32.2667 56.5519 28C63.8052 23.6267 71.8052 21.44 80.5519 21.44C87.1652 21.44 93.0319 22.7733 98.1519 25.44C103.272 28.1067 107.485 31.2 110.792 34.72L100.872 46.72C98.2052 43.9467 95.2185 41.76 91.9119 40.16C88.7119 38.4533 85.0852 37.6 81.0319 37.6C75.3785 37.6 70.3119 39.1467 65.8319 42.24C61.4585 45.2267 57.9919 49.5467 55.4319 55.2C52.9785 60.8533 51.7519 67.6267 51.7519 75.52C51.7519 87.4667 54.3652 96.8533 59.5919 103.68C64.8185 110.4 71.8052 113.76 80.5519 113.76C85.2452 113.76 89.4052 112.8 93.0319 110.88C96.6585 108.853 99.9652 106.24 102.952 103.04L112.872 114.72C108.605 119.627 103.699 123.413 98.1519 126.08C92.7119 128.64 86.6319 129.92 79.9119 129.92Z" fill="#FBFBFB"/>
</svg>
