<svg xmlns="http://www.w3.org/2000/svg" width="256" height="256" viewBox="0 0 100 100"><path fill="#8b5cf6" d="M19.59 40.29L19.59 40.29Q19.76 40.56 19.91 41.02Q20.06 41.48 20.06 42.03L20.06 42.03Q20.06 42.94 19.64 43.42Q19.21 43.90 18.46 43.90L18.46 43.90L13.77 43.90L13.77 60.90Q13.50 60.96 12.92 61.07Q12.34 61.17 11.73 61.17L11.73 61.17Q10.44 61.17 9.90 60.69Q9.35 60.22 9.35 59.09L9.35 59.09L9.35 43.90L3.64 43.90Q3.47 43.59 3.32 43.15Q3.16 42.71 3.16 42.16L3.16 42.16Q3.16 41.21 3.59 40.75Q4.01 40.29 4.76 40.29L4.76 40.29L19.59 40.29ZM38.83 52.87L38.83 52.87Q38.83 54.84 38.24 56.43Q37.64 58.01 36.55 59.13Q35.46 60.25 33.93 60.85Q32.41 61.44 30.50 61.44L30.50 61.44Q28.60 61.44 27.07 60.85Q25.54 60.25 24.45 59.15Q23.36 58.04 22.77 56.46Q22.17 54.88 22.17 52.87L22.17 52.87Q22.17 50.90 22.77 49.32Q23.36 47.74 24.47 46.63Q25.57 45.53 27.10 44.93Q28.63 44.34 30.50 44.34L30.50 44.34Q32.37 44.34 33.90 44.93Q35.43 45.53 36.54 46.65Q37.64 47.77 38.24 49.35Q38.83 50.93 38.83 52.87ZM30.50 47.74L30.50 47.74Q28.66 47.74 27.61 49.08Q26.56 50.42 26.56 52.87L26.56 52.87Q26.56 55.35 27.59 56.68Q28.63 58.01 30.50 58.01L30.50 58.01Q32.37 58.01 33.41 56.66Q34.44 55.32 34.44 52.87L34.44 52.87Q34.44 50.42 33.39 49.08Q32.34 47.74 30.50 47.74ZM46.65 55.93L46.65 55.93Q46.65 57.02 47.31 57.50Q47.98 57.97 49.17 57.97L49.17 57.97Q49.75 57.97 50.34 57.84Q50.94 57.70 51.41 57.50L51.41 57.50Q51.68 57.77 51.87 58.16Q52.06 58.55 52.06 59.06L52.06 59.06Q52.06 60.08 51.14 60.74Q50.22 61.41 48.18 61.41L48.18 61.41Q45.50 61.41 43.95 60.20Q42.40 58.99 42.40 56.20L42.40 56.20L42.40 40.60Q42.67 40.53 43.20 40.43Q43.73 40.33 44.34 40.33L44.34 40.33Q45.53 40.33 46.09 40.77Q46.65 41.21 46.65 42.33L46.65 42.33L46.65 45.15L51.65 45.15Q51.82 45.43 51.96 45.87Q52.09 46.31 52.09 46.82L52.09 46.82Q52.09 47.70 51.68 48.11Q51.28 48.52 50.59 48.52L50.59 48.52L46.65 48.52L46.65 55.93ZM61.78 58.18L61.78 58.18Q62.77 58.18 63.58 57.99Q64.40 57.80 64.77 57.53L64.77 57.53L64.77 53.76L61.48 54.06Q60.12 54.20 59.40 54.66Q58.69 55.12 58.69 56.10L58.69 56.10Q58.69 57.09 59.42 57.63Q60.15 58.18 61.78 58.18ZM61.65 44.34L61.65 44.34Q64.98 44.34 66.97 45.77Q68.96 47.19 68.96 50.19L68.96 50.19L68.96 58.04Q68.96 58.86 68.55 59.33Q68.14 59.81 67.53 60.18L67.53 60.18Q66.58 60.76 65.11 61.10Q63.65 61.44 61.78 61.44L61.78 61.44Q58.38 61.44 56.43 60.13Q54.47 58.82 54.47 56.20L54.47 56.20Q54.47 53.93 55.92 52.72Q57.36 51.51 60.12 51.24L60.12 51.24L64.77 50.77L64.77 50.15Q64.77 48.86 63.84 48.25Q62.90 47.64 61.20 47.64L61.20 47.64Q59.88 47.64 58.62 47.96Q57.36 48.28 56.38 48.76L56.38 48.76Q56.00 48.49 55.75 48.03Q55.49 47.57 55.49 47.02L55.49 47.02Q55.49 46.34 55.81 45.92Q56.14 45.49 56.85 45.15L56.85 45.15Q57.84 44.75 59.10 44.54Q60.35 44.34 61.65 44.34ZM77.69 60.90L77.69 60.90Q77.42 60.96 76.89 61.07Q76.37 61.17 75.76 61.17L75.76 61.17Q74.53 61.17 73.97 60.73Q73.41 60.28 73.41 59.16L73.41 59.16L73.41 38.83Q73.68 38.73 74.21 38.64Q74.74 38.56 75.35 38.56L75.35 38.56Q76.57 38.56 77.13 39.00Q77.69 39.44 77.69 40.56L77.69 40.56L77.69 60.90ZM86.60 60.90L86.60 60.90Q86.30 60.96 85.79 61.07Q85.28 61.17 84.63 61.17L84.63 61.17Q83.44 61.17 82.86 60.73Q82.28 60.28 82.28 59.16L82.28 59.16L82.28 38.83Q82.56 38.73 83.08 38.64Q83.61 38.56 84.26 38.56L84.26 38.56Q85.45 38.56 86.02 39.00Q86.60 39.44 86.60 40.56L86.60 40.56L86.60 51.10L93.20 44.54Q94.49 44.54 95.27 45.12Q96.05 45.70 96.05 46.58L96.05 46.58Q96.05 47.36 95.56 47.94Q95.07 48.52 94.01 49.40L94.01 49.40L90.34 52.60L96.84 58.69Q96.70 59.88 96.12 60.54Q95.54 61.20 94.46 61.20L94.46 61.20Q93.67 61.20 93.08 60.83Q92.48 60.45 91.63 59.50L91.63 59.50L86.60 53.93L86.60 60.90Z"></path></svg>