<svg xmlns="http://www.w3.org/2000/svg" viewBox="0 0 55 68"><path fill="hsl(252, 56.0%, 57.5%)" d="M34.40 67.80L34.40 67.80Q28.20 67.80 22.80 65.60Q17.40 63.40 13.45 59.10Q9.50 54.80 7.20 48.50Q4.90 42.20 4.90 34.10L4.90 34.10Q4.90 26.10 7.25 19.75Q9.60 13.40 13.65 9.00Q17.70 4.60 23.15 2.30Q28.60 0 34.80 0L34.80 0Q41 0 45.80 2.50Q50.60 5.00 53.70 8.30L53.70 8.30L47.50 15.80Q44.90 13.20 41.90 11.65Q38.90 10.10 35.10 10.10L35.10 10.10Q31.10 10.10 27.75 11.75Q24.40 13.40 21.95 16.45Q19.50 19.50 18.15 23.90Q16.80 28.30 16.80 33.80L16.80 33.80Q16.80 45.00 21.65 51.35Q26.50 57.70 34.80 57.70L34.80 57.70Q39.20 57.70 42.60 55.85Q46 54.00 48.80 51.00L48.80 51.00L55 58.30Q51 62.90 45.85 65.35Q40.70 67.80 34.40 67.80Z"></path></svg>
