<svg width="98" height="25" viewBox="0 0 98 25" fill="none" xmlns="http://www.w3.org/2000/svg">
<path d="M17.6967 2.148C17.8167 2.34 17.9247 2.604 18.0207 2.94C18.1407 3.252 18.2007 3.6 18.2007 3.984C18.2007 4.632 18.0447 5.124 17.7327 5.46C17.4447 5.796 17.0367 5.964 16.5087 5.964H11.5407V23.964C11.3487 24.012 11.0487 24.072 10.6407 24.144C10.2327 24.216 9.81273 24.252 9.38073 24.252C8.46873 24.252 7.82073 24.084 7.43673 23.748C7.05273 23.412 6.86073 22.848 6.86073 22.056V5.964H0.812734C0.692734 5.748 0.572734 5.484 0.452734 5.172C0.356734 4.86 0.308734 4.512 0.308734 4.128C0.308734 3.456 0.452734 2.964 0.740734 2.652C1.05273 2.316 1.47273 2.148 2.00073 2.148H17.6967ZM35.8593 15.468C35.8593 16.86 35.6433 18.12 35.2113 19.248C34.8033 20.352 34.2153 21.3 33.4473 22.092C32.6793 22.884 31.7553 23.496 30.6753 23.928C29.5953 24.336 28.3833 24.54 27.0393 24.54C25.6953 24.54 24.4833 24.336 23.4033 23.928C22.3233 23.496 21.3993 22.896 20.6313 22.128C19.8633 21.336 19.2633 20.388 18.8313 19.284C18.4233 18.156 18.2193 16.884 18.2193 15.468C18.2193 14.076 18.4233 12.828 18.8313 11.724C19.2633 10.596 19.8633 9.648 20.6313 8.88C21.4233 8.088 22.3593 7.488 23.4393 7.08C24.5193 6.648 25.7193 6.432 27.0393 6.432C28.3593 6.432 29.5593 6.648 30.6393 7.08C31.7193 7.488 32.6433 8.088 33.4113 8.88C34.2033 9.672 34.8033 10.632 35.2113 11.76C35.6433 12.864 35.8593 14.1 35.8593 15.468ZM27.0393 10.032C25.7433 10.032 24.7233 10.512 23.9793 11.472C23.2353 12.408 22.8633 13.74 22.8633 15.468C22.8633 17.22 23.2233 18.564 23.9433 19.5C24.6873 20.436 25.7193 20.904 27.0393 20.904C28.3593 20.904 29.3793 20.436 30.0993 19.5C30.8433 18.54 31.2153 17.196 31.2153 15.468C31.2153 13.74 30.8433 12.408 30.0993 11.472C29.3553 10.512 28.3353 10.032 27.0393 10.032ZM44.1505 18.708C44.1505 19.476 44.3785 20.028 44.8345 20.364C45.3145 20.7 45.9745 20.868 46.8145 20.868C47.2225 20.868 47.6305 20.82 48.0385 20.724C48.4705 20.628 48.8545 20.508 49.1905 20.364C49.3825 20.556 49.5385 20.796 49.6585 21.084C49.8025 21.348 49.8745 21.66 49.8745 22.02C49.8745 22.74 49.5505 23.34 48.9025 23.82C48.2545 24.276 47.2105 24.504 45.7705 24.504C43.8745 24.504 42.3745 24.084 41.2705 23.244C40.1905 22.38 39.6505 20.964 39.6505 18.996V2.472C39.8425 2.424 40.1185 2.364 40.4785 2.292C40.8625 2.22 41.2705 2.184 41.7025 2.184C42.5425 2.184 43.1545 2.34 43.5385 2.652C43.9465 2.964 44.1505 3.516 44.1505 4.308V7.296H49.4425C49.5625 7.488 49.6705 7.74 49.7665 8.052C49.8625 8.364 49.9105 8.7 49.9105 9.06C49.9105 9.684 49.7665 10.14 49.4785 10.428C49.1905 10.716 48.8065 10.86 48.3265 10.86H44.1505V18.708ZM60.2676 21.084C60.9636 21.084 61.5996 21.024 62.1756 20.904C62.7516 20.76 63.1716 20.592 63.4356 20.4V16.404L59.9436 16.728C58.9836 16.824 58.2516 17.04 57.7476 17.376C57.2436 17.688 56.9916 18.192 56.9916 18.888C56.9916 19.584 57.2436 20.124 57.7476 20.508C58.2756 20.892 59.1156 21.084 60.2676 21.084ZM60.1236 6.432C62.4756 6.432 64.3476 6.936 65.7396 7.944C67.1556 8.952 67.8636 10.512 67.8636 12.624V20.94C67.8636 21.516 67.7196 21.972 67.4316 22.308C67.1436 22.644 66.7836 22.944 66.3516 23.208C65.6796 23.616 64.8276 23.94 63.7956 24.18C62.7636 24.42 61.5876 24.54 60.2676 24.54C57.8676 24.54 55.9716 24.084 54.5796 23.172C53.2116 22.236 52.5276 20.844 52.5276 18.996C52.5276 17.388 53.0316 16.164 54.0396 15.324C55.0716 14.46 56.5596 13.932 58.5036 13.74L63.4356 13.236V12.588C63.4356 11.676 63.0996 11.004 62.4276 10.572C61.7796 10.14 60.8556 9.924 59.6556 9.924C58.7196 9.924 57.8076 10.044 56.9196 10.284C56.0316 10.5 55.2396 10.776 54.5436 11.112C54.2796 10.92 54.0516 10.668 53.8596 10.356C53.6916 10.02 53.6076 9.66 53.6076 9.276C53.6076 8.796 53.7156 8.412 53.9316 8.124C54.1716 7.812 54.5436 7.536 55.0476 7.296C55.7436 7.008 56.5356 6.792 57.4236 6.648C58.3116 6.504 59.2116 6.432 60.1236 6.432ZM77.1322 23.964C76.9402 24.012 76.6522 24.072 76.2682 24.144C75.9082 24.216 75.5122 24.252 75.0802 24.252C74.2162 24.252 73.5802 24.096 73.1722 23.784C72.7882 23.472 72.5962 22.92 72.5962 22.128V0.599999C72.7882 0.527998 73.0642 0.467998 73.4242 0.419999C73.8082 0.347998 74.2162 0.311998 74.6482 0.311998C75.5122 0.311998 76.1362 0.467998 76.5202 0.779999C76.9282 1.092 77.1322 1.644 77.1322 2.436V23.964ZM86.5507 23.964C86.3347 24.012 86.0467 24.072 85.6867 24.144C85.3267 24.216 84.9187 24.252 84.4627 24.252C83.6227 24.252 82.9987 24.096 82.5907 23.784C82.1827 23.472 81.9787 22.92 81.9787 22.128V0.599999C82.1707 0.527998 82.4467 0.467998 82.8067 0.419999C83.1907 0.347998 83.6107 0.311998 84.0667 0.311998C84.9067 0.311998 85.5307 0.467998 85.9387 0.779999C86.3467 1.092 86.5507 1.644 86.5507 2.436V13.596L93.5347 6.648C94.4467 6.648 95.1787 6.852 95.7307 7.26C96.2827 7.668 96.5587 8.184 96.5587 8.808C96.5587 9.36 96.3787 9.84 96.0187 10.248C95.6827 10.656 95.1427 11.172 94.3987 11.796L90.5107 15.18L97.3867 21.624C97.2907 22.464 97.0387 23.124 96.6307 23.604C96.2227 24.06 95.6347 24.288 94.8667 24.288C94.3147 24.288 93.8227 24.156 93.3907 23.892C92.9827 23.628 92.4787 23.16 91.8787 22.488L86.5507 16.584V23.964Z" fill="#8B5CF6"/>
</svg>
